HIERARCHY
ROOT Hips
{
	OFFSET	0.00	0.00	0.00
	CHANNELS 6 Xposition Yposition Zposition Zrotation Xrotation Yrotation
	JOINT LeftUpLeg
	{
		OFFSET	 0.126116	-0.014019	-0.065224
		CHANNELS 3 Zrotation Xrotation Yrotation
		JOINT LeftLeg
		{
			OFFSET	 0.000000	 0.000000	 0.569914
			CHANNELS 3 Zrotation Xrotation Yrotation
			JOINT LeftFoot
			{
				OFFSET	 0.000000	 0.000000	 0.544423
				CHANNELS 3 Zrotation Xrotation Yrotation
				JOINT LeftToeBase
				{
					OFFSET	 0.000000	 0.000000	 0.207117
					CHANNELS 3 Zrotation Xrotation Yrotation
					End Site
					{
						OFFSET	 0.000000	 0.000000	 0.207117
					}
				}
			}
		}
	}
	JOINT RightUpLeg
	{
		OFFSET	-0.124023	-0.008373	-0.065224
		CHANNELS 3 Zrotation Xrotation Yrotation
		JOINT RightLeg
		{
			OFFSET	 0.000000	 0.000000	 0.570047
			CHANNELS 3 Zrotation Xrotation Yrotation
			JOINT RightFoot
			{
				OFFSET	 0.000000	 0.000000	 0.544354
				CHANNELS 3 Zrotation Xrotation Yrotation
				JOINT RightToeBase
				{
					OFFSET	 0.000000	 0.000000	 0.207540
					CHANNELS 3 Zrotation Xrotation Yrotation
					End Site
					{
						OFFSET	 0.000000	 0.000000	 0.207540
					}
				}
			}
		}
	}
	JOINT Spine
	{
		OFFSET	 0.000184	-0.007763	 0.117403
		CHANNELS 3 Zrotation Xrotation Yrotation
		JOINT Spine1
		{
			OFFSET	 0.000000	 0.000000	 0.137269
			CHANNELS 3 Zrotation Xrotation Yrotation
			JOINT Spine2
			{
				OFFSET	 0.000000	 0.000000	 0.156879
				CHANNELS 3 Zrotation Xrotation Yrotation
				JOINT LeftShoulder
				{
					OFFSET	 0.080501	-0.002496	 0.160144
					CHANNELS 3 Zrotation Xrotation Yrotation
					JOINT LeftArm
					{
						OFFSET	 0.000000	 0.000000	 0.164363
						CHANNELS 3 Zrotation Xrotation Yrotation
						JOINT LeftForeArm
						{
							OFFSET	 0.000000	 0.000000	 0.364576
							CHANNELS 3 Zrotation Xrotation Yrotation
							JOINT LeftHand
							{
								OFFSET	 0.000000	 0.000000	 0.360812
								CHANNELS 3 Zrotation Xrotation Yrotation
								JOINT LeftHandIndex1
								{
									OFFSET	 0.000000	 0.000000	 0.086006
									CHANNELS 3 Zrotation Xrotation Yrotation
									JOINT LeftHandIndex2
									{
										OFFSET	 0.000000	 0.000000	 0.047236
										CHANNELS 3 Zrotation Xrotation Yrotation
										JOINT LeftHandIndex3
										{
											OFFSET	-0.004284	-0.000551	 0.038166
											CHANNELS 3 Zrotation Xrotation Yrotation
											End Site
											{
												OFFSET	-0.004284	-0.000551	 0.038166
											}
										}
									}
								}
							}
						}
					}
				}
				JOINT Neck
				{
					OFFSET	 0.000000	 0.000000	 0.176489
					CHANNELS 3 Zrotation Xrotation Yrotation
					JOINT Head
					{
						OFFSET	 0.000000	-0.001747	 0.077940
						CHANNELS 3 Zrotation Xrotation Yrotation
						End Site
						{
							OFFSET	 0.000000	-0.001747	 0.077940
						}
					}
				}
				JOINT RightShoulder
				{
					OFFSET	-0.080363	 0.000306	 0.159706
					CHANNELS 3 Zrotation Xrotation Yrotation
					JOINT RightArm
					{
						OFFSET	 0.000000	 0.000000	 0.164196
						CHANNELS 3 Zrotation Xrotation Yrotation
						JOINT RightForeArm
						{
							OFFSET	 0.000000	 0.000000	 0.365611
							CHANNELS 3 Zrotation Xrotation Yrotation
							JOINT RightHand
							{
								OFFSET	 0.000000	 0.000000	 0.360648
								CHANNELS 3 Zrotation Xrotation Yrotation
								JOINT RightHandIndex1
								{
									OFFSET	 0.000000	 0.000000	 0.069977
									CHANNELS 3 Zrotation Xrotation Yrotation
									JOINT RightHandIndex2
									{
										OFFSET	 0.000000	 0.000000	 0.052305
										CHANNELS 3 Zrotation Xrotation Yrotation
										JOINT RightHandIndex3
										{
											OFFSET	 0.009002	-0.000782	 0.042196
											CHANNELS 3 Zrotation Xrotation Yrotation
											End Site
											{
												OFFSET	 0.009002	-0.000782	 0.042196
											}
										}
									}
								}
							}
						}
					}
				}
			}
		}
	}
}
MOTION
Frames:    8
Frame Time: 0.03333334
-0.029874	 0.266795	 1.052628	 2.203753	 32.861800	-7.831514	 54.152760	-73.366550	-135.390000	 5.054701	-65.933260	 4.998154	 62.467740	 72.606120	-74.021020	-2.385832	 28.452790	-0.000001	 26.936570	-82.319030	-148.588800	-14.441140	-69.505100	-8.715861	-24.989050	 74.372980	 50.088730	 2.384659	 28.388700	-0.000001	-6.718462	 14.245650	 1.270384	-2.157400	 17.179810	 2.332882	-2.102515	 1.640387	 3.067260	-99.180430	 68.203990	 156.732800	 2.709612	-9.490122	-47.578330	 1.089159	-0.836290	-5.843588	-32.393060	-23.676070	-21.505410	-2.027600	 6.559038	 9.033609	-5.188889	 0.308190	 3.541030	-5.234859	 0.342567	 0.430617	 0.430471	 17.989070	-6.199446	-0.422550	-27.007140	-0.885234	 97.480570	 64.638010	-159.232500	-8.642473	 5.831052	 53.908670	-14.877990	-4.911887	 33.451660	 16.182420	-23.138240	 16.783060	 1.803333	 3.979147	-15.098590	 4.898592	 3.004813	-9.310344	 5.224449	 0.395017	 2.014677
-0.026415	 0.265627	 1.071674	 1.773035	 31.646980	-7.115387	 47.644260	-71.018420	-142.320200	 4.232028	-63.015600	 4.144351	 59.396740	 72.360860	-70.490990	-2.385832	 28.452790	-0.000001	 11.748960	-79.622540	-163.063900	-13.482500	-66.351120	-7.644801	-23.575230	 73.668570	 48.133040	 2.384659	 28.388700	-0.000001	-14.031230	 13.704530	 1.251183	-2.096900	 16.931130	 2.431831	-1.229077	 0.853025	 2.418071	-98.829270	 68.421090	 157.487900	 3.578402	-6.854811	-48.217350	 4.617528	-1.581647	-7.591712	-32.140330	-26.289870	-21.915570	-2.027600	 6.559038	 9.033609	-5.188889	 0.308190	 3.541030	-5.234859	 0.342567	 0.430617	-0.171211	 14.066760	-4.791587	 0.115140	-23.158630	-1.177766	 97.265180	 64.385710	-160.033200	-9.970357	 6.160602	 51.934030	-16.471870	-7.263859	 38.191360	 15.286790	-25.424430	 17.803650	 1.803333	 3.979147	-15.098590	 4.898592	 3.004813	-9.310344	 5.224449	 0.395017	 2.014677
-0.023054	 0.263538	 1.089856	 1.546055	 30.484080	-6.498186	 42.708360	-68.544780	-147.573200	 3.726550	-60.142060	 3.594698	 56.218730	 72.034130	-66.886680	-2.385832	 28.452790	-0.000001	 3.258645	-76.587440	-170.766000	-12.791380	-63.237740	-6.834375	-21.963390	 72.975780	 46.040050	 2.384659	 28.388700	-0.000001	-20.381420	 13.119250	 1.185838	-2.114433	 16.751550	 2.494760	-0.480928	 0.016308	 1.828741	-98.305520	 69.005110	 158.249700	 4.385101	-4.044930	-49.019770	 7.810322	-2.413489	-9.092548	-32.075000	-28.952610	-22.531390	-2.027600	 6.559038	 9.033609	-5.188889	 0.308190	 3.541030	-5.234859	 0.342567	 0.430617	-0.626240	 9.737374	-3.778193	 0.680440	-18.936010	-1.360945	 97.005230	 64.072180	-160.982800	-11.349810	 6.343286	 50.303270	-17.634400	-9.769838	 42.701310	 14.226730	-27.453220	 18.623200	 1.803333	 3.979147	-15.098590	 4.898592	 3.004813	-9.310344	 5.224449	 0.395017	 2.014677
-0.019727	 0.260901	 1.107586	 1.314282	 29.213090	-5.823390	 38.748570	-65.870740	-151.968400	 3.332877	-57.304520	 3.156650	 53.268410	 71.750440	-63.454180	-2.385833	 28.452760	 0.000004	-2.414907	-73.232910	-175.655600	-12.328320	-60.049950	-6.231084	-20.323510	 72.331310	 43.926780	 2.384659	 28.388700	-0.000001	-26.209220	 12.503590	 1.112858	-2.201732	 16.749770	 2.620351	 0.222900	-1.100775	 1.237549	-97.486920	 70.170880	 159.073200	 5.346350	-0.754851	-49.918950	 10.870510	-3.333743	-10.445000	-32.285220	-31.692320	-23.593210	-2.027600	 6.559038	 9.033609	-5.188889	 0.308190	 3.541030	-5.234859	 0.342567	 0.430617	-0.954254	 4.515005	-2.683569	 1.132365	-13.942890	-1.852782	 96.688670	 64.293070	-161.613300	-12.779710	 7.504763	 48.723770	-18.806480	-12.690240	 46.969170	 13.044540	-29.485700	 18.998920	 1.803333	 3.979147	-15.098590	 4.898592	 3.004813	-9.310344	 5.224449	 0.395017	 2.014677
-0.016280	 0.257274	 1.129245	 1.036113	 27.437740	-4.970611	 34.633830	-62.254100	-156.727900	 3.166710	-53.701280	 2.889212	 49.369680	 71.435220	-59.074320	-2.385833	 28.452760	 0.000004	-7.404131	-68.668720	-179.642500	-12.056940	-55.910470	-5.731871	-18.613230	 71.511250	 41.705450	 2.384659	 28.388700	-0.000001	-32.450040	 11.833200	 1.084549	-2.244334	 16.842110	 2.695905	 1.061833	-2.647704	 0.645561	-95.734000	 73.003620	 160.000600	 6.601810	 4.430279	-52.012090	 14.536650	-4.577554	-11.942130	-32.892280	-35.359260	-24.856830	-2.027600	 6.559038	 9.033609	-5.188889	 0.308190	 3.541030	-5.234859	 0.342567	 0.430617	-1.259220	-2.486393	-2.204805	 1.891266	-7.240400	-1.939659	 95.794960	 65.922190	-162.597200	-14.511910	 10.374600	 48.088090	-19.966820	-16.562490	 51.769690	 11.975770	-32.922760	 19.340730	 1.803333	 3.979147	-15.098590	 4.898592	 3.004813	-9.310344	 5.224449	 0.395017	 2.014677
-0.014484	 0.253845	 1.144304	 0.922376	 26.080840	-4.416664	 32.102240	-59.528010	-159.708600	 3.198968	-51.095560	 2.815041	 46.095330	 71.195190	-55.534940	-2.385833	 28.452750	 0.000004	-10.027380	-65.231990	 178.493300	-11.367920	-52.915720	-4.970403	-17.997430	 70.957950	 40.373080	 2.384659	 28.388700	-0.000001	-36.090840	 11.348080	 1.119205	-2.235446	 17.067210	 2.664379	 1.617506	-3.936633	 0.337075	-94.233430	 75.263820	 160.619400	 7.771276	 8.071789	-53.943440	 17.057300	-5.505993	-12.885760	-33.160510	-38.016640	-25.740790	-2.027600	 6.559038	 9.033609	-5.188889	 0.308190	 3.541030	-5.234859	 0.342567	 0.430617	-1.465048	-8.048215	-2.331491	 2.445616	-1.963740	-1.848042	 95.040840	 67.403020	-163.355200	-15.811230	 12.582380	 47.965990	-20.410140	-19.349350	 55.095350	 11.170240	-35.581430	 19.265580	 1.803333	 3.979147	-15.098590	 4.898592	 3.004813	-9.310344	 5.224449	 0.395017	 2.014677
-0.012856	 0.249061	 1.160134	 0.997950	 24.595400	-3.874819	 29.665520	-56.475330	-162.561400	 3.236943	-48.241020	 2.762883	 42.555030	 70.868540	-51.662090	-2.385833	 28.452750	 0.000004	-12.275400	-61.393460	 177.164200	-10.354270	-49.661920	-3.974314	-17.316790	 70.427730	 38.677410	 2.384659	 28.388700	-0.000001	-39.114280	 10.744710	 1.078070	-2.235142	 17.248860	 2.569338	 2.167107	-5.391510	 0.031812	-93.081100	 76.818800	 161.476900	 9.155683	 11.190090	-55.770750	 19.665040	-6.516238	-13.787590	-33.038860	-40.757220	-26.668280	-2.027600	 6.559038	 9.033609	-5.188889	 0.308190	 3.541030	-5.234859	 0.342567	 0.430617	-1.664577	-13.193280	-2.320221	 2.993352	 2.896874	-1.931763	 94.287960	 68.843350	-164.181900	-17.276780	 14.884790	 47.796250	-20.559560	-22.281230	 58.526890	 10.077920	-38.365940	 18.865400	 1.803333	 3.979147	-15.098590	 4.898592	 3.004813	-9.310344	 5.224449	 0.395017	 2.014677
-0.010972	 0.242826	 1.175879	 1.480397	 23.239110	-3.394022	 27.944850	-53.260590	-164.613000	 3.409783	-45.198410	 2.664974	 39.708960	 70.414740	-48.260190	-2.385833	 28.452750	 0.000004	-14.175850	-57.460950	 176.396700	-9.262581	-46.296540	-2.978224	-15.878320	 69.873500	 36.210830	 2.384659	 28.388700	-0.000001	-41.027230	 9.849512	 0.717498	-2.351279	 16.923550	 2.430575	 2.661544	-6.709762	-0.386385	-93.839360	 75.392890	 163.101100	 10.349300	 12.130150	-55.935760	 22.116530	-7.492425	-14.558610	-31.983890	-43.007350	-27.518720	-2.027600	 6.559038	 9.033609	-5.188889	 0.308190	 3.541030	-5.234859	 0.342567	 0.430617	-1.666758	-14.518570	-1.129252	 3.479584	 4.149264	-2.636160	 93.833540	 69.512830	-164.976300	-18.753710	 17.037340	 47.055120	-20.577630	-25.004160	 61.427140	 8.565057	-40.718810	 18.117980	 1.803333	 3.979147	-15.098590	 4.898592	 3.004813	-9.310344	 5.224449	 0.395017	 2.014677
